<svg width="168" height="213" viewBox="0 0 168 213" fill="none" xmlns="http://www.w3.org/2000/svg">
<path d="M165.994 172.053C166.594 172.658 166.594 173.634 165.994 174.239L128.838 211.628C128.232 212.238 127.245 212.238 126.639 211.628L61.5835 146.162L100.924 106.575L165.994 172.053ZM61.5835 146.162L40.8619 167.016C40.2557 167.626 39.2687 167.626 38.6625 167.016L1.50826 129.627C0.907431 129.023 0.907418 128.046 1.50823 127.442L22.2437 106.575L61.5835 146.162ZM61.5845 66.9857L22.2437 106.575L0.450669 84.6439C-0.150169 84.0393 -0.150161 83.063 0.450689 82.4584L37.6059 45.0698C38.2121 44.4598 39.199 44.4598 39.8052 45.0698L61.5845 66.9857ZM167.051 37.847C167.652 38.4517 167.652 39.428 167.051 40.0326L100.924 106.575L61.5845 66.9857L127.697 0.457528C128.303 -0.15249 129.29 -0.152486 129.896 0.457537L167.051 37.847Z" fill="#C6FF00"/>
</svg>
