<svg width="87" height="87" viewBox="0 0 87 87" fill="none" xmlns="http://www.w3.org/2000/svg">
<rect width="87" height="87" rx="24" fill="#070707"/>
<path d="M66.6393 61.9994C67.3277 62.6857 67.3277 63.8006 66.6393 64.487L57.2539 73.8439C56.5684 74.5272 55.4593 74.5272 54.7739 73.8439L36.0451 55.1729L47.9191 43.3359L66.6393 61.9994ZM36.0451 55.1729L30.7002 60.5027C30.0147 61.1862 28.9055 61.1863 28.22 60.5029L18.8345 51.146C18.1462 50.4597 18.1461 49.3449 18.8344 48.6585L24.172 43.3359L36.0451 55.1729ZM36.0461 31.499L24.172 43.3359L18.5164 37.6979C17.8279 37.0116 17.8279 35.8966 18.5163 35.2103L27.9018 25.8525C28.5873 25.1691 29.6964 25.1691 30.3819 25.8524L36.0461 31.499ZM66.9576 21.8694C67.6461 22.5558 67.646 23.6708 66.9576 24.3571L47.9191 43.3359L36.0461 31.499L55.0922 12.5125C55.7777 11.8292 56.8868 11.8292 57.5722 12.5125L66.9576 21.8694Z" fill="white"/>
</svg>
